<svg id="visual" viewBox="0 0 960 540" width="960" height="540" xmlns="http://www.w3.org/2000/svg" xmlns:xlink="http://www.w3.org/1999/xlink" version="1.1"><rect x="0" y="0" width="960" height="540" fill="#2F2F2F"></rect><path d="M145 0L141.5 22.5C138 45 131 90 124 135C117 180 110 225 125.5 270C141 315 179 360 197.7 405C216.3 450 215.7 495 215.3 517.5L215 540L0 540L0 517.5C0 495 0 450 0 405C0 360 0 315 0 270C0 225 0 180 0 135C0 90 0 45 0 22.5L0 0Z" fill="#12b4d4"></path><path d="M154 0L147 22.5C140 45 126 90 127.8 135C129.7 180 147.3 225 154 270C160.7 315 156.3 360 155.2 405C154 450 156 495 157 517.5L158 540L0 540L0 517.5C0 495 0 450 0 405C0 360 0 315 0 270C0 225 0 180 0 135C0 90 0 45 0 22.5L0 0Z" fill="#08a4c8"></path><path d="M154 0L154 22.5C154 45 154 90 141.8 135C129.7 180 105.3 225 94.2 270C83 315 85 360 91.8 405C98.7 450 110.3 495 116.2 517.5L122 540L0 540L0 517.5C0 495 0 450 0 405C0 360 0 315 0 270C0 225 0 180 0 135C0 90 0 45 0 22.5L0 0Z" fill="#0595bb"></path><path d="M55 0L66.2 22.5C77.3 45 99.7 90 111 135C122.3 180 122.7 225 116.2 270C109.7 315 96.3 360 85.8 405C75.3 450 67.7 495 63.8 517.5L60 540L0 540L0 517.5C0 495 0 450 0 405C0 360 0 315 0 270C0 225 0 180 0 135C0 90 0 45 0 22.5L0 0Z" fill="#0685ad"></path><path d="M41 0L46.8 22.5C52.7 45 64.3 90 66.8 135C69.3 180 62.7 225 61.2 270C59.7 315 63.3 360 63.2 405C63 450 59 495 57 517.5L55 540L0 540L0 517.5C0 495 0 450 0 405C0 360 0 315 0 270C0 225 0 180 0 135C0 90 0 45 0 22.5L0 0Z" fill="#0a769f"></path><path d="M42 0L40.3 22.5C38.7 45 35.3 90 35.3 135C35.3 180 38.7 225 40.3 270C42 315 42 360 44 405C46 450 50 495 52 517.5L54 540L0 540L0 517.5C0 495 0 450 0 405C0 360 0 315 0 270C0 225 0 180 0 135C0 90 0 45 0 22.5L0 0Z" fill="#0e6790"></path></svg>